<?xml version="1.0" encoding="UTF-8" standalone="no"?>
<svg
   width="200"
   height="200"
   version="1.1"
   id="svg1"
   >

  <path
          fill="none"
          stroke="black"
     d="m 35.007448,24.235292 c 0.62635,3.714453 0.263175,7.080253 -1.172151,10.576171 -0.261906,0.637908 -0.703654,1.187761 -1.008066,1.806513 -1.017974,2.069152 -0.591489,2.077725 -2.124327,3.630109 -0.418724,0.424064 -0.960673,0.71173 -1.386884,1.128268 -0.527169,0.515204 -0.888854,1.354518 -1.395602,1.857338 -0.354546,0.351799 -0.683262,0.260508 -0.683262,0.892079"
    />
  <path
          fill="none"
          stroke="black"
     d="m 52.591256,26.937218 c -1.865573,4.922545 -3.652329,15.425893 -9.402255,19.461494 -0.328414,0.230498 -0.523315,0.667936 -0.903955,0.794816 -0.142928,0.04764 -0.326622,-0.08357 -0.451977,0 -0.779032,0.519354 0.174715,0.451977 -0.451978,0.451977"
     />
  <path
          fill="none"
          stroke="black"
     d="m 32.852556,35.527006 c 1.776253,1.568051 3.767687,0.177352 5.631124,0.44786 0.55184,0.08011 0.995486,0.511801 1.523658,0.690628 0.559579,0.189461 1.132377,0.342932 1.710915,0.462585 0.493647,0.102095 0.994081,0.170828 1.494693,0.229968 0.149619,0.01768 0.317224,-0.06738 0.451977,0 0.190571,0.09529 0.269091,0.342667 0.451978,0.451977 0.647469,0.386987 1.431902,-0.07355 1.98369,0.230272 0.512289,0.282071 -0.09161,0.225988 0.42864,0.225988"
  />
  <path
          fill="none"
          stroke="black"
     d="m 58.507459,41.8752 c -5.996,7.246745 -3.554716,4.904201 -6.581976,7.726837"
      />
  <path
          fill="none"
          stroke="black"
     d="m 62.152686,36.488175 c -4.193162,1.015631 -0.303845,2.00344 0.422404,1.277145 0.317054,-0.317073 -0.255602,-0.860929 -0.422404,-1.277145 z"
    />
  <path
          fill="none"
          stroke="black"
     d="M 118.1231,33.963108 173.13912,49.713547 191.0715,9.9753306 126.20659,8.1078116 Z"
     />
  <path
          fill="none"
          stroke="black"
     d="m 20.098345,149.00376 c 22.7404,6.13959 58.444888,15.7793 99.722755,26.92375 l 15.15986,4.09295 6.77787,-14.16453 c 10.14611,-21.20349 21.32529,-44.56594 32.50447,-67.928379 L 186.80809,71.711259 157.75566,70.922444 C 117.31838,69.824513 76.881105,68.726583 40.180679,67.730113 L 26.169756,67.349696 21.75918,80.653737 C 15.694231,98.948021 10.448178,114.77219 7.106935,124.8507 Z M 42.925727,136.7254 c 2.499476,-7.53941 6.064896,-18.29412 10.241669,-30.89292 13.884674,0.37699 43.939183,1.19301 74.511634,2.0231 3.80469,-7.951103 -4.9354,10.31409 -13.18181,27.54756 -34.816626,-9.4 -64.656731,-17.45641 -84.562903,-22.8308 z"
      />
  <path
          fill="none"
          stroke="black"
     d="m 36.716322,148.58769 c -7.297934,24.07356 -61.33161,13.5083 -7.139755,23.89137 54.191858,10.38308 83.855283,19.63196 49.770391,4.91915 C 45.262065,162.6854 36.716322,148.58769 36.716322,148.58769 Z"
  />
  <path
          fill="none"
          stroke="black"
     d="m 77.363631,89.141591 c -0.682385,2.596951 -1.870064,4.92061 -3.79465,7.103712 -1.688487,1.915291 -4.060727,3.851457 -7.362765,5.708677 -2.978822,1.67542 -6.410213,3.11691 -10.236656,4.38629 -3.57688,1.18659 -6.942002,2.04841 -10.384175,2.91351 -1.476791,0.37115 -3.27813,0.81999 -4.810142,1.25889 -0.780514,0.22361 -1.7218,0.50914 -2.692846,0.85711 -0.871315,0.31223 -2.299984,0.86107 -3.846322,1.71725 -0.792001,0.43851 -1.885682,1.10529 -3.06105,2.05382 -1.134105,0.91524 -2.764173,2.42836 -4.213544,4.66934 -0.743794,1.15005 -1.472424,2.54237 -2.039704,4.17615 -0.571412,1.64569 -0.95118,3.45822 -1.045258,5.39194 -0.09397,1.9314 0.106017,3.80262 0.539143,5.55821 0.428042,1.73499 1.056473,3.24925 1.743387,4.52885 1.33128,2.47994 2.944038,4.19825 4.105784,5.25998 1.184807,1.08281 2.312667,1.85657 3.147664,2.3746 1.6099,0.99878 3.138573,1.66324 4.165868,2.07389 1.106996,0.4425 2.226424,0.82275 3.271311,1.15063 1.056723,0.33159 2.186968,0.65619 3.367979,0.97665 2.322356,0.63016 5.110993,1.31705 8.37122,2.08245 6.422978,1.50791 15.099382,3.41927 26.770535,5.99915 22.68478,5.01443 42.82335,9.89071 60.02575,14.10835 8.31327,2.03822 15.9461,3.92367 22.45277,5.49104 6.47657,1.56011 12.15036,2.88152 16.71896,3.82163 2.28428,0.47006 4.44947,0.87764 6.3986,1.1763 0.98202,0.15047 1.98929,0.28573 2.98675,0.38697 0.9711,0.0986 2.11679,0.1841 3.33338,0.19236 1.08532,0.007 2.95208,-0.0351 5.09917,-0.48933 1.10936,-0.23467 2.71549,-0.66544 4.50604,-1.51211 1.77821,-0.84084 4.2804,-2.34907 6.52955,-4.99542 1.14723,-1.34984 2.18271,-2.94544 2.98231,-4.78119 0.80222,-1.84179 1.28841,-3.74547 1.49069,-5.63147 0.20045,-1.86894 0.10897,-3.59027 -0.13029,-5.09552 -0.23751,-1.49418 -0.62233,-2.78959 -1.02663,-3.85672 -0.78563,-2.07364 -1.77989,-3.63963 -2.50548,-4.64721 -0.75403,-1.04705 -1.49898,-1.87731 -2.0847,-2.48011 -1.14508,-1.17846 -2.28478,-2.10246 -3.12618,-2.74249 -0.89763,-0.6828 -1.81716,-1.31409 -2.68915,-1.88244 -1.7408,-1.13461 -3.76339,-2.32358 -5.94551,-3.54191 -4.43171,-2.47434 -10.34962,-5.52823 -17.62543,-9.15158 -28.91547,-14.39985 -45.16219,-27.85512 -53.46185,-35.883453 -11.53397,-11.156923 -11.6282,-13.954072 -10.97334,-12.70772 z m 1.545729,13.570989 c 0.654859,1.24635 3.046036,7.67574 18.142546,22.27873 11.057704,10.69623 30.474634,26.40357 62.876224,42.53951 7.12679,3.54913 12.41277,6.28927 16.05142,8.32082 1.80465,1.00759 3.00381,1.72995 3.73623,2.20732 0.33472,0.21817 0.51113,0.35082 0.4483,0.30302 -0.0627,-0.0477 -0.35605,-0.23748 -1.09165,-0.99452 -0.33733,-0.34717 -0.87862,-0.93917 -1.47335,-1.76502 -0.56652,-0.78668 -1.44598,-2.14881 -2.16073,-4.03536 -0.36889,-0.97367 -0.72926,-2.17981 -0.95323,-3.58886 -0.22575,-1.42017 -0.31461,-3.06056 -0.12239,-4.85268 0.19404,-1.80921 0.66115,-3.64022 1.43349,-5.41339 0.76973,-1.76719 1.76455,-3.29828 2.86038,-4.58764 2.14642,-2.52549 4.50299,-3.92895 6.09307,-4.68083 1.60257,-0.75779 2.97831,-1.11546 3.81526,-1.29251 1.60286,-0.33907 2.75777,-0.32823 2.96699,-0.32681 0.34155,0.002 0.44854,0.0228 0.22078,-3.5e-4 -0.20031,-0.0203 -0.55045,-0.0631 -1.08178,-0.14451 -1.07554,-0.16481 -2.55639,-0.43556 -4.5082,-0.8372 -3.90922,-0.80443 -9.06746,-2.00019 -15.48755,-3.5467 -6.4074,-1.54345 -13.89084,-3.39217 -22.30418,-5.45492 -17.28279,-4.23735 -37.75402,-9.19535 -60.866764,-14.30437 -11.806454,-2.60979 -20.17389,-4.45377 -26.290648,-5.8898 -3.091658,-0.72582 -5.400775,-1.29952 -7.113773,-1.76433 -0.859174,-0.23314 -1.494577,-0.41902 -1.951981,-0.56255 -0.446365,-0.14007 -0.674647,-0.23062 -0.562657,-0.18585 0.113016,0.0452 0.553275,0.17557 1.721031,0.90004 0.537184,0.33326 1.422054,0.92784 2.41592,1.83614 0.969854,0.88636 2.443282,2.43402 3.685022,4.74717 0.641973,1.19588 1.238004,2.62739 1.645843,4.28049 0.412869,1.67349 0.604855,3.46346 0.514806,5.31438 -0.09015,1.85303 -0.454019,3.58561 -0.997902,5.15201 -0.539676,1.55429 -1.22901,2.86776 -1.92211,3.93943 -1.34773,2.08382 -2.830341,3.44189 -3.773987,4.20343 -0.983906,0.79402 -1.842596,1.30761 -2.358937,1.5935 -0.990281,0.5483 -1.696682,0.79116 -1.702701,0.79331 -0.141244,0.0506 0.02756,-0.0104 0.355861,-0.10451 0.795884,-0.22801 1.894921,-0.5053 3.615282,-0.93767 3.467693,-0.87152 8.034242,-2.02487 13.067981,-3.69476 5.442551,-1.80551 11.225468,-4.14662 16.853973,-7.31234 6.314214,-3.55139 12.20832,-8.016 17.170311,-13.6445 5.93891,-6.73664 9.85598,-14.36589 11.98499,-22.468245 z"
      />
  <path
          fill="none"
          stroke="black"
     d="m 142.49255,160.81322 h -1.08 v -3.996 h -4.392 v 3.996 h -1.08 v -8.568 h 1.08 v 3.624 h 4.392 v -3.624 h 1.08 z m 4.67999,-6.552 q 0.828,0 1.416,0.36 0.6,0.36 0.912,1.02 0.324,0.648 0.324,1.524 v 0.636 h -4.404 q 0.024,1.092 0.552,1.668 0.54,0.564 1.5,0.564 0.612,0 1.08,-0.108 0.48,-0.12 0.984,-0.336 v 0.924 q -0.492,0.216 -0.972,0.312 -0.48,0.108 -1.14,0.108 -0.912,0 -1.62,-0.372 -0.696,-0.372 -1.092,-1.104 -0.384,-0.744 -0.384,-1.812 0,-1.056 0.348,-1.812 0.36,-0.756 0.996,-1.164 0.648,-0.408 1.5,-0.408 z m -0.012,0.864 q -0.756,0 -1.2,0.492 -0.432,0.48 -0.516,1.344 h 3.276 q -0.012,-0.816 -0.384,-1.32 -0.372,-0.516 -1.176,-0.516 z m 5.35199,5.688 h -1.056 v -9.12 h 1.056 z m 3.09599,0 h -1.056 v -9.12 h 1.056 z m 7.632,-3.228 q 0,1.596 -0.816,2.472 -0.804,0.876 -2.184,0.876 -0.852,0 -1.524,-0.384 -0.66,-0.396 -1.044,-1.14 -0.384,-0.756 -0.384,-1.824 0,-1.596 0.804,-2.46 0.804,-0.864 2.184,-0.864 0.876,0 1.536,0.396 0.672,0.384 1.044,1.128 0.384,0.732 0.384,1.8 z m -4.86,0 q 0,1.14 0.444,1.812 0.456,0.66 1.44,0.66 0.972,0 1.428,-0.66 0.456,-0.672 0.456,-1.812 0,-1.14 -0.456,-1.788 -0.456,-0.648 -1.44,-0.648 -0.984,0 -1.428,0.648 -0.444,0.648 -0.444,1.788 z"
      />
</svg>
