<?xml version="1.0" encoding="UTF-8" standalone="no"?>
<svg
   width="200"
   height="200"
   version="1.1"
   id="svg1"
   xmlns="http://www.w3.org/2000/svg"
   xmlns:svg="http://www.w3.org/2000/svg">
  <defs
     id="defs1" />
  <path
     d="M 50,100 C 49.342104,81.1206 66.713274,67.515056 83.855438,64.294434 c 20.623922,-4.4449 45.450912,-1.091642 59.583282,15.930175 11.73971,14.661136 7.11009,38.442661 -9.06372,47.900391 -20.41814,12.59536 -48.331858,12.59536 -68.75,0 C 56.116824,122.07387 49.729159,111.41186 50,100 Z"
     fill="none"
     stroke="#000000"
     id="path1" />
  <path
     style="fill:#000000"
     d="m 35.007448,24.235292 c 1.631311,7.697475 -2.710785,14.717856 -7.770292,19.890478"
     id="path2" />
  <path
     style="fill:#000000"
     d="M 52.591256,26.937218 C 50.019121,34.226924 48.649955,43.673091 41.381091,47.645505"
     id="path3" />
  <path
     style="fill:#000000"
     d="m 32.852556,35.527006 c 4.492532,0.72229 9.297828,1.308796 13.676675,2.739278"
     id="path4" />
  <path
     style="fill:#000000"
     d="m 58.507459,41.8752 c -2.271788,2.510434 -3.986833,5.519728 -6.581976,7.726837"
     id="path5" />
  <path
     style="fill:#000000"
     d="m 62.152686,36.488175 c -5.409191,0.677864 2.321096,3.116612 0,0 z"
     id="path6" />
  <path
     d="m 118.1231,33.963108 c 18.33867,5.250147 36.67735,10.500293 55.01602,15.750439 C 179.11658,36.467475 185.09404,23.221403 191.0715,9.9753306 169.44986,9.3528243 147.82823,8.7303179 126.20659,8.1078116 123.5121,16.726244 120.8176,25.344676 118.1231,33.963108 Z"
     id="path8"
     style="fill:#000000" />
  <path
     style="fill:#000000;fill-rule:nonzero;stroke:none"
     d="m 20.098345,149.00376 c 38.294203,10.3389 76.588407,20.6778 114.882615,31.0167 17.27571,-36.10307 34.55142,-72.20614 51.82713,-108.309201 C 133.26198,70.257405 79.715866,68.80355 26.169756,67.349696 19.815482,86.516697 13.461209,105.6837 7.106935,124.8507 c 4.33047,8.05102 8.66094,16.10204 12.99141,24.15306 z M 42.925727,136.7254 c 3.41389,-10.29764 6.827779,-20.59528 10.241669,-30.89292 -3.872785,-0.10515 -20.052192,-0.54445 -8.899887,-0.24165 27.803842,0.75492 55.607684,1.50983 83.411521,2.26475 4.1816,-8.738767 8.36319,-17.477531 12.54479,-26.216295 -8.57553,17.921287 -17.15107,35.842575 -25.7266,53.763855 -28.187632,-7.61026 -56.375267,-15.22053 -84.562903,-22.8308 4.33047,8.05102 8.66094,16.10204 12.99141,24.15306 z"
     id="path7"
     transform="matrix(0.55168967,0,0,0.58500166,104.32185,-42.548118)" />
  <path
     d="m 36.716322,148.58769 c -4.3164,12.81395 -19.160028,15.29001 -30.6197316,18.11664 6.4661726,3.86171 17.6452736,4.05358 26.0021056,6.26052 20.326858,3.6596 40.3558,8.98436 60.768181,12.08022 C 89.691266,180.03708 76.064652,177.02083 69.057184,172.61028 57.166294,166.4219 44.989731,159.3889 36.716322,148.58769 Z"
     id="path10"
     style="fill:#000000" />
  <path
     style="fill:#000000;fill-rule:nonzero;stroke:none"
     d="m 77.363631,89.141591 c -7.326069,20.737619 -34.072819,15.568759 -48.177153,27.836779 -15.389594,16.62164 5.120895,36.89441 23.402397,36.40517 45.348021,9.31086 89.962235,22.03042 135.353365,30.98344 20.52641,4.99769 33.4607,-24.98227 15.06786,-36.03921 -28.33213,-17.1811 -60.56041,-29.31932 -83.53182,-54.259795 -4.3434,-11.231643 -13.64519,-8.397822 -23.028389,-7.1003 -6.362087,0.724638 -12.724173,1.449277 -19.08626,2.173916 z m 1.545729,13.570989 c 20.82724,32.84169 56.46869,52.52687 90.35253,69.54774 7.88989,3.5744 13.94077,9.93641 6.17646,-0.69324 -10.02357,-12.65718 15.33789,-26.06114 13.30707,-25.21737 -45.71475,-10.73439 -91.417923,-21.62626 -137.160253,-32.21593 14.200849,5.62154 11.984675,28.37948 -0.417154,32.65539 26.50882,-5.20481 55.771517,-19.49808 62.692537,-48.057515 -11.6504,1.326975 -23.300794,2.653945 -34.95119,3.980925 z"
     id="path9"
     transform="matrix(0.58617361,0,0,0.50807987,-19.328962,100.86038)" />
  <path
     d="m 142.49255,160.81322 c -0.49871,-1.61768 -3.1274,-6.89547 -5.472,-2.83414 -0.37466,6.5773 -1.67978,-1.37172 -1.08,-4.13704 1.18118,-4.49009 0.15725,5.21777 5.14652,2.02718 0.17216,-5.37753 2.04482,-2.97107 1.40548,1.60438 0,1.11321 0,2.22641 0,3.33962 z m 4.67999,-6.552 c 5.10343,1.70636 1.94806,4.88166 -1.752,3.54 0.94353,3.37274 7.7776,2.35045 0.384,2.76 -2.471,-1.36745 -1.82182,-6.41343 1.368,-6.3 z m -0.012,0.864 c -5.83347,3.15781 5.54008,1.98843 0,0 z m 5.35199,5.688 c -1.97824,-0.81963 -1.20951,-7.53473 -0.47507,-9.12 1.09715,2.03655 0.16581,6.27524 0.47507,9.12 z m 3.09599,0 c -1.97824,-0.81963 -1.20951,-7.53473 -0.47507,-9.12 1.09715,2.03655 0.16581,6.27524 0.47507,9.12 z m 7.632,-3.228 c -3.59947,10.74151 -9.69909,-8.37617 -0.384,-1.8 z m -4.86,0 c 4.56796,9.04331 3.91152,-8.6018 0,0 z"
     id="text10"
     aria-label="Hello" />
</svg>
