<?xml version="1.0" encoding="UTF-8" standalone="no"?>
<svg
   width="500"
   height="500"
   version="1.1"
   id="svg14"
   sodipodi:docname="output.svg"
   xmlns:inkscape="http://www.inkscape.org/namespaces/inkscape"
   xmlns:sodipodi="http://sodipodi.sourceforge.net/DTD/sodipodi-0.dtd"
   xmlns="http://www.w3.org/2000/svg"
   xmlns:svg="http://www.w3.org/2000/svg">
  <defs
     id="defs18" />
  <sodipodi:namedview
     id="namedview16"
     pagecolor="#ffffff"
     bordercolor="#000000"
     borderopacity="0.25"
     inkscape:showpageshadow="2"
     inkscape:pageopacity="0.0"
     inkscape:pagecheckerboard="0"
     inkscape:deskcolor="#d1d1d1"
     showgrid="false" />
  <path
     d="M10 210h100v100H10z"
     id="path2" />
  <path
     id="circle4"
     d="m 250,200 a 50,50 0 0 1 -50,50 50,50 0 0 1 -50,-50 50,50 0 0 1 50,-50 50,50 0 0 1 50,50 z" />
  <path
     d="m300 200 100 100-100 100Z"
     stroke="#000"
     fill="none"
     id="path6" />
  <g
     aria-label="Hello SVG"
     id="text8"
     style="font-size:35px;font-family:Verdana">
    <path
       d="m 272.8833,50 h -3.38379 V 37.541504 H 256.80176 V 50 h -3.38379 V 24.553223 h 3.38379 v 9.980468 h 12.69775 v -9.980468 h 3.38379 z"
       id="path21" />
    <path
       d="m 295.44189,40.788574 h -14.06494 q 0,1.760254 0.52979,3.076172 0.52978,1.298828 1.45263,2.136231 0.88868,0.820312 2.10206,1.230468 1.23046,0.410157 2.70019,0.410157 1.94824,0 3.91358,-0.769043 1.98242,-0.786133 2.81982,-1.538086 h 0.1709 v 3.503418 q -1.62354,0.683593 -3.31543,1.145019 -1.6919,0.461426 -3.55469,0.461426 -4.75098,0 -7.41699,-2.563477 -2.66602,-2.580566 -2.66602,-7.314453 0,-4.682617 2.54639,-7.434082 2.56348,-2.751465 6.7334,-2.751465 3.8623,0 5.94726,2.25586 2.10205,2.255859 2.10205,6.408691 z m -3.12744,-2.460937 q -0.0171,-2.529297 -1.28174,-3.913575 -1.24755,-1.384277 -3.81103,-1.384277 -2.58057,0 -4.11865,1.520996 -1.521,1.520996 -1.72608,3.776856 z"
       id="path23" />
    <path
       d="m 303.55957,50 h -3.21289 V 23.408203 h 3.21289 z"
       id="path25" />
    <path
       d="m 313.16406,50 h -3.21289 V 23.408203 h 3.21289 z"
       id="path27" />
    <path
       d="m 335.79102,40.463867 q 0,4.665528 -2.39258,7.365723 -2.39258,2.700195 -6.40869,2.700195 -4.0503,0 -6.44288,-2.700195 -2.37548,-2.700195 -2.37548,-7.365723 0,-4.665527 2.37548,-7.365722 2.39258,-2.717286 6.44288,-2.717286 4.01611,0 6.40869,2.717286 2.39258,2.700195 2.39258,7.365722 z m -3.31543,0 q 0,-3.708496 -1.45264,-5.50293 -1.45264,-1.811523 -4.0332,-1.811523 -2.61475,0 -4.06739,1.811523 -1.43554,1.794434 -1.43554,5.50293 0,3.588867 1.45263,5.45166 1.45264,1.845703 4.0503,1.845703 2.56347,0 4.01611,-1.828613 1.46973,-1.845703 1.46973,-5.46875 z"
       id="path29" />
    <path
       d="m 371.81641,42.736816 q 0,1.486817 -0.70069,2.939454 -0.68359,1.452636 -1.93115,2.460937 -1.36719,1.09375 -3.1958,1.708984 -1.81152,0.615235 -4.375,0.615235 -2.75147,0 -4.95606,-0.512696 -2.1875,-0.512695 -4.46044,-1.520996 v -4.238281 h 0.23925 q 1.93116,1.606445 4.46045,2.478027 2.5293,0.871582 4.75098,0.871582 3.14453,0 4.88769,-1.179199 1.76026,-1.179199 1.76026,-3.144531 0,-1.691895 -0.8374,-2.495117 -0.82032,-0.803223 -2.51221,-1.247559 -1.28174,-0.341797 -2.78565,-0.563965 -1.48681,-0.222168 -3.16162,-0.563964 -3.38379,-0.717774 -5.02441,-2.443848 -1.62354,-1.743164 -1.62354,-4.528809 0,-3.1958 2.7002,-5.229492 2.70019,-2.050781 6.85303,-2.050781 2.6831,0 4.92187,0.512695 2.23877,0.512695 3.96485,1.264649 v 3.999023 h -0.23926 q -1.45264,-1.230469 -3.82813,-2.033691 -2.3584,-0.820313 -4.83642,-0.820313 -2.71729,0 -4.375,1.12793 -1.64063,1.12793 -1.64063,2.905273 0,1.589356 0.82031,2.495117 0.82032,0.905762 2.88819,1.384278 1.09375,0.239258 3.11035,0.581054 2.0166,0.341797 3.41797,0.700684 2.83691,0.751953 4.27246,2.272949 1.43555,1.520996 1.43555,4.255371 z"
       id="path31" />
    <path
       d="M 397.31445,24.553223 388.05176,50 h -4.51172 l -9.2627,-25.446777 h 3.62305 l 7.98096,22.387695 7.98095,-22.387695 z"
       id="path33" />
    <path
       d="m 422.40234,48.120117 q -2.08496,0.957031 -4.56298,1.674805 -2.46094,0.700683 -4.76807,0.700683 -2.97363,0 -5.45166,-0.820312 -2.47803,-0.820313 -4.22119,-2.460938 -1.76026,-1.657714 -2.71729,-4.135742 -0.95703,-2.495117 -0.95703,-5.827636 0,-6.101075 3.55469,-9.621582 3.57178,-3.537598 9.79248,-3.537598 2.17041,0 4.42627,0.529785 2.27295,0.512695 4.88769,1.760254 v 4.016113 h -0.30761 q -0.52979,-0.410156 -1.53809,-1.07666 -1.0083,-0.666504 -1.98242,-1.11084 -1.1792,-0.529785 -2.68311,-0.871582 -1.48681,-0.358887 -3.38379,-0.358887 -4.27246,0 -6.76757,2.751465 -2.47803,2.734375 -2.47803,7.416992 0,4.938965 2.59766,7.69043 2.59765,2.734375 7.07519,2.734375 1.64063,0 3.26416,-0.324707 1.64063,-0.324707 2.87109,-0.837402 V 40.17334 h -6.81884 v -2.973633 h 10.16845 z"
       id="path35" />
  </g>
  <path
     stroke="#000"
     fill="none"
     d="m 0 0 50 50 50-50-90 10"
     id="path10" />
  <path
     d="m 200 100 50 180-90 20z"
     id="path12" />
</svg>
